<svg id="agentforce-icon" width="160" height="160" viewBox="0 0 160 160" fill="none" xmlns="http://www.w3.org/2000/svg">
<g clip-path="url(#clip0_16778_12770)">
<path d="M96.8326 84.8112C94.3214 85.0205 92.098 85.439 90.1623 86.0406H90.1885C90.1885 86.0406 87.3896 86.93 83.0736 87.5578C82.0796 87.7147 80.7717 87.7147 80.0654 87.7147C80.0654 87.7147 79.9608 87.7147 79.8039 87.7147C79.6469 87.7147 79.5161 87.7147 79.5161 87.7147C78.8099 87.7147 77.502 87.6624 76.508 87.5055C72.2181 86.7992 69.4192 85.8314 69.4192 85.8314H69.4454C67.5359 85.2298 65.3124 84.7589 62.8013 84.4973C49.0685 83.0848 43.1568 88.3164 42.8168 89.3104C42.4767 90.3044 43.9939 103.017 45.0663 105.005C46.1388 106.993 47.7606 108.17 49.3039 108.798C50.821 109.426 63.4029 110.681 67.562 110.106C71.7211 109.53 72.4012 108.118 73.526 105.973C74.3107 104.456 76.351 97.5239 77.502 93.4956C77.7635 92.7109 77.8159 91.0891 79.7515 90.9845C81.6872 91.1414 81.7134 92.737 81.9488 93.5479C83.0474 97.6024 84.9569 104.56 85.7155 106.104C86.788 108.249 87.4419 109.687 91.601 110.341C95.7601 110.995 108.342 109.975 109.885 109.373C111.429 108.772 113.077 107.621 114.175 105.659C115.3 103.671 117 91.0106 116.686 90.0166C116.372 89.0226 110.539 83.6864 96.8064 84.8374L96.8326 84.8112Z" fill="#0176D3"/>
<path d="M139.653 44.816C135.834 39.9768 131.308 35.6608 126.312 31.9725C131.518 31.057 135.467 26.5317 135.467 21.0909C135.467 14.97 130.498 10 124.377 10C118.256 10 113.286 14.97 113.286 21.0909C113.286 22.3203 113.521 23.4713 113.887 24.5699C106.014 20.8555 97.3818 18.3966 88.3835 17.455C73.2905 15.8593 58.7206 18.5536 46.1648 24.4914C46.5049 23.4189 46.7403 22.2942 46.7403 21.0909C46.7403 14.97 41.7703 10 35.6494 10C29.5285 10 24.5585 14.97 24.5585 21.0909C24.5585 26.5056 28.456 31.0047 33.6091 31.9725C19.3793 42.4618 9.43932 57.7903 7.1636 75.5514C5.04482 91.9523 9.72706 108.406 20.3471 121.825C32.3797 137.048 51.0825 147.041 71.6164 149.186C74.4937 149.499 77.3188 149.63 80.1438 149.63C116.765 149.63 148.494 124.754 152.81 91.0891C154.929 74.6882 150.247 58.2349 139.627 44.816H139.653ZM79.9869 130.77C52.4166 130.77 29.9993 112.382 29.9993 89.7812C29.9993 82.954 32.0658 76.4408 35.8325 70.6076C36.1726 72.674 36.8004 74.4789 37.4543 75.8391C38.3698 77.6702 40.2009 78.7426 42.1104 78.7426C42.869 78.7426 43.6537 78.5857 44.3861 78.2195C46.9757 76.9901 48.0482 73.8511 46.8449 71.2615C46.191 69.8752 44.5692 65.3499 48.5452 61.8447C52.4166 65.3499 57.9882 69.4828 64.266 71.4969C75.9324 75.2113 84.7476 73.0141 85.1399 72.9356C86.8925 72.4909 88.305 71.1569 88.8543 69.4305C89.4036 67.7041 89.0113 65.7945 87.808 64.4343C81.9225 57.6595 79.0975 52.7157 77.8681 49.7075C101.776 52.9249 106.328 71.9939 106.511 72.8571C107.034 75.316 109.205 76.9901 111.612 76.9901C111.978 76.9901 112.318 76.9639 112.684 76.8854C115.509 76.2838 117.314 73.5111 116.739 70.6861C116.006 67.1548 114.07 62.3417 110.644 57.5287C122.362 65.036 129.922 76.7023 129.922 89.8074C129.922 112.408 107.505 130.797 79.9345 130.797L79.9869 130.77Z" fill="#0176D3"/>
</g>
<defs>
<clipPath id="clip0_16778_12770">
<rect width="146.667" height="139.63" fill="white" transform="translate(6.66669 10)"/>
</clipPath>
</defs>
</svg>
