<svg xmlns="http://www.w3.org/2000/svg" viewBox="0 0 96 96">
<rect width="96" height="96" rx="20" fill="#ffffff"/>
<path d="M29.1 39.3c0-8.2 6.3-13.4 15.9-13.4 4.4 0 8.5 1 12 2.8v9.5c-3.5-2.1-7.3-3.2-11.2-3.2-4.7 0-7.3 1.6-7.3 4.4 0 2.6 2.4 3.8 8.9 5.9 9.2 2.9 13.1 6.7 13.1 13.1 0 8.5-6.4 13.8-16.7 13.8-5.6 0-10.4-1.4-14.1-3.7v-9.8c4.1 3.1 8.6 4.6 13.6 4.6 4.9 0 7.8-1.6 7.8-4.5 0-2.7-2.2-4-9.1-6.1-8.8-2.8-12.9-6.6-12.9-13.4z" fill="#232f3e"/>
<path d="M68.4 65.1c-9.6 7.1-23.6 10.9-35.6 6.9-1.3-.4-1.1-1.7.3-1.5 11.4 1.4 23.5-1.4 33.8-7.8 1.5-.9 2.9 1.2 1.5 2.4z" fill="#ff9900"/>
<path d="M72.2 60.6c-1.2-1.5-8-.7-11.1-.4-.9.1-1.1-.7-.2-1.3 5.4-3.8 14.2-2.7 15.2-1.4 1 1.3-.3 10.1-5.3 14.2-.8.6-1.5.3-1.2-.6 1-3 3.8-9 2.6-10.5z" fill="#ff9900"/>
</svg>
