<svg xmlns="http://www.w3.org/2000/svg" viewBox="0 0 64 64">
<rect width="64" height="64" rx="14" fill="#76b900"/>
<path fill="#fff" d="M13 24.5c7.4-5.4 16.8-6.3 26.4-2.8-3.8-3.6-8.8-5.6-14.6-5.6-4.5 0-8.5 1.1-11.8 3.2v5.2z"/>
<path fill="#fff" d="M15.3 29.8c4.8-4.4 11-6.4 17.2-4.6 4.7 1.4 7.7 4.5 8.5 8.1.6 2.7-.2 5.3-2.1 7.2-1.9 1.9-4.8 2.8-7.8 2.2-3.3-.6-6.1-2.7-7.3-5.5-.9-2.1-.6-4.3.8-5.7 1.3-1.3 3.4-1.7 5.4-1 1.5.5 2.7 1.6 3.2 2.9.3.8.2 1.6-.2 2.2-.5.7-1.5 1.1-2.6.9-1-.1-1.8-.7-2.2-1.4.3 2.1 2 3.9 4.4 4.3 2.1.4 4.1-.2 5.3-1.5 1.2-1.2 1.7-2.9 1.3-4.7-.6-2.8-3-5.1-6.5-6.1-5.9-1.7-12 1-16.3 6.4l-1.1-3.7z"/>
<path fill="#fff" d="M14.4 37c6.3 6.8 15.3 10.9 25.7 8.8 5.7-1.1 10.1-4.1 12.9-8.2v-5.1c-3 5.8-7.7 9.3-13.6 10.5-9.2 1.8-17.2-2.1-23-8.8L14.4 37z"/>
</svg>
