<svg xmlns="http://www.w3.org/2000/svg" viewBox="0 0 48 48">
<path fill="#4285f4" d="M46.1 24.5c0-1.6-.1-3.1-.4-4.5H24v8.5h12.4c-.5 2.8-2.1 5.2-4.5 6.8v5.6h7.3c4.3-4 6.9-9.9 6.9-16.4z"/>
<path fill="#34a853" d="M24 47c6.1 0 11.3-2 15.1-5.9l-7.3-5.6c-2 1.4-4.6 2.2-7.8 2.2-6 0-11-4-12.8-9.4H3.7v5.8C7.5 41.7 15.2 47 24 47z"/>
<path fill="#fbbc05" d="M11.2 28.3c-.5-1.4-.7-2.8-.7-4.3s.2-3 .7-4.3v-5.8H3.7C2 17 1 20.4 1 24s1 7 2.7 10.1l7.5-5.8z"/>
<path fill="#ea4335" d="M24 10.3c3.3 0 6.3 1.1 8.6 3.4l6.5-6.5C35.2 3.4 30.1 1 24 1 15.2 1 7.5 6.3 3.7 13.9l7.5 5.8c1.8-5.4 6.8-9.4 12.8-9.4z"/>
</svg>
